<svg width="21" height="21" viewBox="0 0 21 21" fill="none" xmlns="http://www.w3.org/2000/svg">
<g id="delete 1">
<path id="Vector" d="M5.25 16.625C5.25 17.5875 6.0375 18.375 7 18.375H14C14.9625 18.375 15.75 17.5875 15.75 16.625V7.875C15.75 6.9125 14.9625 6.125 14 6.125H7C6.0375 6.125 5.25 6.9125 5.25 7.875V16.625ZM15.75 3.5H13.5625L12.9412 2.87875C12.7837 2.72125 12.5563 2.625 12.3288 2.625H8.67125C8.44375 2.625 8.21625 2.72125 8.05875 2.87875L7.4375 3.5H5.25C4.76875 3.5 4.375 3.89375 4.375 4.375C4.375 4.85625 4.76875 5.25 5.25 5.25H15.75C16.2312 5.25 16.625 4.85625 16.625 4.375C16.625 3.89375 16.2312 3.5 15.75 3.5Z" fill="#EC5252"/>
</g>
</svg>
